<svg width="23" height="23" viewBox="0 0 23 23" fill="none" xmlns="http://www.w3.org/2000/svg">
<path d="M5.75 20.4444L8.94444 15.3333H7.02778V11.5L3.83333 16.6111H5.75V20.4444ZM2.55556 8.94444H10.2222V2.55556H2.55556V8.94444ZM2.55556 20.4444H10.2222V11.5H2.55556V20.4444ZM0 23V2.55556C0 1.85278 0.250444 1.25094 0.751333 0.750055C1.25137 0.250018 1.85278 0 2.55556 0H10.2222C10.925 0 11.5268 0.250018 12.0277 0.750055C12.5278 1.25094 12.7778 1.85278 12.7778 2.55556V11.5H14.375C14.9926 11.5 15.5199 11.7181 15.9569 12.1542C16.393 12.5912 16.6111 13.1185 16.6111 13.7361V19.6458C16.6111 20.0079 16.7602 20.338 17.0583 20.6361C17.3565 20.9343 17.6866 21.0833 18.0486 21.0833C18.4319 21.0833 18.7676 20.9343 19.0555 20.6361C19.3426 20.338 19.4861 20.0079 19.4861 19.6458V7.66667H19.1667C18.8046 7.66667 18.5014 7.544 18.2569 7.29867C18.0116 7.05418 17.8889 6.75093 17.8889 6.38889V3.83333H18.5278V1.91667H19.8056V3.83333H21.0833V1.91667H22.3611V3.83333H23V6.38889C23 6.75093 22.8773 7.05418 22.632 7.29867C22.3875 7.544 22.0843 7.66667 21.7222 7.66667H21.4028V19.6458C21.4028 20.5403 21.0782 21.3227 20.4291 21.9931C19.7792 22.6644 18.9856 23 18.0486 23C17.1329 23 16.3449 22.6644 15.6847 21.9931C15.0245 21.3227 14.6944 20.5403 14.6944 19.6458V13.7361C14.6944 13.6296 14.668 13.5496 14.6152 13.4959C14.5616 13.4431 14.4815 13.4167 14.375 13.4167H12.7778V23H0ZM10.2222 20.4444H2.55556H10.2222Z" fill="currentColor"/>
<rect x="1" y="10" width="11" height="12" fill="currentColor"/>
<path d="M4 16.5L7 11.5V15.5H9L5.5 20.5V16.5H4Z" fill="#F2F2F2"/>
</svg>
