<svg width="13" height="13" viewBox="0 0 13 13" fill="none" xmlns="http://www.w3.org/2000/svg">
<path fill-rule="evenodd" clip-rule="evenodd" d="M9.2568 0.730386L9.25742 1.1989C10.9791 1.33383 12.1164 2.507 12.1182 4.30609L12.125 9.57221C12.1275 11.5337 10.8951 12.7406 8.91988 12.7437L4.09493 12.75C2.132 12.7525 0.88426 11.5169 0.881792 9.54972L0.875004 4.34545C0.872536 2.53448 1.9697 1.36444 3.69136 1.2064L3.69074 0.737882C3.69012 0.46302 3.89376 0.256248 4.16527 0.256248C4.43679 0.255624 4.64043 0.46177 4.64104 0.736633L4.64166 1.17391L8.30712 1.16892L8.3065 0.731635C8.30588 0.456773 8.50952 0.250626 8.78103 0.250001C9.04638 0.249377 9.25618 0.455523 9.2568 0.730386ZM1.82592 4.53848L11.1685 4.52598V4.30734C11.142 2.96427 10.4681 2.25962 9.25865 2.15467L9.25927 2.63568C9.25927 2.9043 9.05008 3.11731 8.78473 3.11731C8.51322 3.11794 8.30896 2.90555 8.30896 2.63693L8.30835 2.13093L4.64289 2.13593L4.64351 2.6413C4.64351 2.91054 4.44049 3.12294 4.16897 3.12294C3.89746 3.12356 3.69321 2.91179 3.69321 2.64255L3.69259 2.16154C2.48928 2.28211 1.82345 2.98925 1.8253 4.3442L1.82592 4.53848ZM8.52494 7.37768V7.38455C8.53111 7.67191 8.7656 7.88992 9.05008 7.88368C9.32776 7.87681 9.54929 7.6388 9.54312 7.35144C9.53016 7.07658 9.3074 6.85232 9.03033 6.85294C8.74647 6.85919 8.52432 7.09032 8.52494 7.37768ZM9.03465 10.1825C8.75079 10.1763 8.52186 9.93952 8.52124 9.65217C8.51507 9.36481 8.74277 9.12681 9.02663 9.11993H9.0328C9.32283 9.11993 9.55793 9.35669 9.55793 9.65029C9.55855 9.9439 9.32406 10.1819 9.03465 10.1825ZM5.98257 7.38768C5.99491 7.67503 6.23002 7.89929 6.51388 7.8868C6.79156 7.87368 7.0131 7.6363 7.00075 7.34895C6.99397 7.06784 6.76565 6.8492 6.48796 6.84982C6.2041 6.86231 5.98195 7.10032 5.98257 7.38768ZM6.51635 10.1544C6.23249 10.1669 5.998 9.94265 5.98504 9.65529C5.98504 9.36794 6.20657 9.13055 6.49043 9.11744C6.76812 9.11681 6.99705 9.33545 7.00322 9.61594C7.01618 9.90392 6.79403 10.1413 6.51635 10.1544ZM3.4402 7.40954C3.45254 7.6969 3.68765 7.92178 3.97151 7.90866C4.24919 7.89617 4.47073 7.65816 4.45777 7.37081C4.4516 7.0897 4.22328 6.87106 3.94497 6.87168C3.66112 6.88418 3.43959 7.12218 3.4402 7.40954ZM3.97398 10.1575C3.69012 10.1707 3.45563 9.94577 3.44267 9.65841C3.44205 9.37106 3.6642 9.13305 3.94806 9.12056C4.22575 9.11993 4.45468 9.33857 4.46085 9.61968C4.47381 9.90704 4.25228 10.145 3.97398 10.1575Z" fill="#828282"/>
</svg>
