<svg width="30" height="30" viewBox="0 0 30 30" fill="none" xmlns="http://www.w3.org/2000/svg">
<path fill-rule="evenodd" clip-rule="evenodd" d="M15.7319 4.48744C15.1182 3.81663 14.0535 3.84176 13.4721 4.54078L6.34679 13.107C6.1227 13.3764 6 13.7158 6 14.0662V25.4202C6 26.2486 6.67157 26.9202 7.5 26.9202H10.6578C11.4863 26.9202 12.1578 26.2486 12.1578 25.4202V20.6916C12.1578 19.8631 12.8294 19.1916 13.6578 19.1916H16.342C17.1705 19.1916 17.842 19.8631 17.842 20.6916V25.4202C17.842 26.2486 18.5136 26.9202 19.342 26.9202H22.5C23.3284 26.9202 24 26.2486 24 25.4202V14.1066C24 13.7318 23.8597 13.3706 23.6067 13.094L15.7319 4.48744Z" fill="currentColor"/>
</svg>
