<svg width="15" height="17" viewBox="0 0 15 17" fill="none" xmlns="http://www.w3.org/2000/svg">
<path fill-rule="evenodd" clip-rule="evenodd" d="M0 6.86215C0 3.06726 3.1712 0 7.00709 0C10.8538 0 14.025 3.06726 14.025 6.86215C14.025 8.77444 13.3295 10.5498 12.1848 12.0545C10.922 13.7144 9.36553 15.1606 7.61355 16.2958C7.21257 16.5581 6.8507 16.5779 6.41062 16.2958C4.64866 15.1606 3.09217 13.7144 1.84016 12.0545C0.694636 10.5498 0 8.77444 0 6.86215ZM4.69756 7.07517C4.69756 8.34646 5.73494 9.34633 7.00691 9.34633C8.27972 9.34633 9.32708 8.34646 9.32708 7.07517C9.32708 5.81378 8.27972 4.76523 7.00691 4.76523C5.73494 4.76523 4.69756 5.81378 4.69756 7.07517Z" fill="#0FE6BF"/>
</svg>
