<svg width="19" height="19" viewBox="0 0 19 19" fill="none" xmlns="http://www.w3.org/2000/svg">
<path d="M9.49967 1.58203C5.12176 1.58203 1.58301 5.1287 1.58301 9.4987C1.58301 13.8687 5.12176 17.4154 9.49967 17.4154C13.8697 17.4154 17.4163 13.8687 17.4163 9.4987C17.4163 5.1287 13.8697 1.58203 9.49967 1.58203Z" fill="#0FE5BF"/>
<path d="M7.20801 11.3333C7.66634 11.7917 8.58301 12.25 9.49967 12.25M9.49967 12.25C10.6455 12.25 11.7913 12.0208 11.7913 10.875C11.7913 9.72917 10.6682 9.5 9.49967 9.5M9.49967 12.25V9.5M9.49967 12.25V13.625M9.49967 9.5C8.35384 9.5 7.20801 9.27083 7.20801 8.125C7.20801 6.97917 8.35384 6.75 9.49967 6.75M9.49967 9.5V6.75M9.49967 6.75C10.4163 6.75 11.333 7.20833 11.7913 7.66667M9.49967 6.75V5.375" stroke="white"/>
</svg>
