<svg width="66" height="11" viewBox="0 0 66 11" fill="none" xmlns="http://www.w3.org/2000/svg">
<path fill-rule="evenodd" clip-rule="evenodd" d="M5.9478 1.42577L6.96827 3.47648C7.04345 3.62506 7.18694 3.72823 7.35243 3.75116L9.64459 4.085C9.77845 4.1038 9.89994 4.17442 9.982 4.28218C10.0631 4.38857 10.098 4.52339 10.0783 4.65591C10.0622 4.76597 10.0104 4.86777 9.93111 4.94573L8.27021 6.55575C8.14873 6.6681 8.09372 6.83456 8.12306 6.99735L8.53198 9.26084C8.57553 9.53414 8.39445 9.79186 8.12306 9.84368C8.0112 9.86156 7.89659 9.84276 7.79574 9.7914L5.75113 8.72615C5.59939 8.64957 5.42014 8.64957 5.2684 8.72615L3.2238 9.7914C2.97258 9.92484 2.6613 9.83405 2.52148 9.58642C2.46968 9.48783 2.45134 9.37548 2.4683 9.26588L2.87722 7.00194C2.90656 6.83961 2.85109 6.67223 2.73006 6.55988L1.06917 4.95077C0.871582 4.76001 0.865623 4.44589 1.05587 4.24825C1.06 4.24412 1.06458 4.23954 1.06917 4.23495C1.14802 4.1547 1.25162 4.1038 1.36348 4.0905L3.65564 3.75621C3.82067 3.73282 3.96416 3.63056 4.0398 3.48107L5.0236 1.42577C5.11116 1.24968 5.2927 1.14008 5.48982 1.14467H5.55125C5.72225 1.16531 5.87124 1.27123 5.9478 1.42577Z" fill="#FFAA1B"/>
<path fill-rule="evenodd" clip-rule="evenodd" d="M19.6978 1.42577L20.7183 3.47648C20.7934 3.62506 20.9369 3.72823 21.1024 3.75116L23.3946 4.085C23.5285 4.1038 23.6499 4.17442 23.732 4.28218C23.8131 4.38857 23.848 4.52339 23.8283 4.65591C23.8122 4.76597 23.7604 4.86777 23.6811 4.94573L22.0202 6.55575C21.8987 6.6681 21.8437 6.83456 21.8731 6.99735L22.282 9.26084C22.3255 9.53414 22.1444 9.79186 21.8731 9.84368C21.7612 9.86156 21.6466 9.84276 21.5457 9.7914L19.5011 8.72615C19.3494 8.64957 19.1701 8.64957 19.0184 8.72615L16.9738 9.7914C16.7226 9.92484 16.4113 9.83405 16.2715 9.58642C16.2197 9.48783 16.2013 9.37548 16.2183 9.26588L16.6272 7.00194C16.6566 6.83961 16.6011 6.67223 16.4801 6.55988L14.8192 4.95077C14.6216 4.76001 14.6156 4.44589 14.8059 4.24825C14.81 4.24412 14.8146 4.23954 14.8192 4.23495C14.898 4.1547 15.0016 4.1038 15.1135 4.0905L17.4056 3.75621C17.5707 3.73282 17.7142 3.63056 17.7898 3.48107L18.7736 1.42577C18.8612 1.24968 19.0427 1.14008 19.2398 1.14467H19.3013C19.4722 1.16531 19.6212 1.27123 19.6978 1.42577Z" fill="#FFAA1B"/>
<path fill-rule="evenodd" clip-rule="evenodd" d="M33.4478 1.42577L34.4683 3.47648C34.5434 3.62506 34.6869 3.72823 34.8524 3.75116L37.1446 4.085C37.2785 4.1038 37.3999 4.17442 37.482 4.28218C37.5631 4.38857 37.598 4.52339 37.5783 4.65591C37.5622 4.76597 37.5104 4.86777 37.4311 4.94573L35.7702 6.55575C35.6487 6.6681 35.5937 6.83456 35.6231 6.99735L36.032 9.26084C36.0755 9.53414 35.8944 9.79186 35.6231 9.84368C35.5112 9.86156 35.3966 9.84276 35.2957 9.7914L33.2511 8.72615C33.0994 8.64957 32.9201 8.64957 32.7684 8.72615L30.7238 9.7914C30.4726 9.92484 30.1613 9.83405 30.0215 9.58642C29.9697 9.48783 29.9513 9.37548 29.9683 9.26588L30.3772 7.00194C30.4066 6.83961 30.3511 6.67223 30.2301 6.55988L28.5692 4.95077C28.3716 4.76001 28.3656 4.44589 28.5559 4.24825C28.56 4.24412 28.5646 4.23954 28.5692 4.23495C28.648 4.1547 28.7516 4.1038 28.8635 4.0905L31.1556 3.75621C31.3207 3.73282 31.4642 3.63056 31.5398 3.48107L32.5236 1.42577C32.6112 1.24968 32.7927 1.14008 32.9898 1.14467H33.0513C33.2222 1.16531 33.3712 1.27123 33.4478 1.42577Z" fill="#FFAA1B"/>
<path fill-rule="evenodd" clip-rule="evenodd" d="M47.1978 1.42577L48.2183 3.47648C48.2934 3.62506 48.4369 3.72823 48.6024 3.75116L50.8946 4.085C51.0285 4.1038 51.1499 4.17442 51.232 4.28218C51.3131 4.38857 51.348 4.52339 51.3283 4.65591C51.3122 4.76597 51.2604 4.86777 51.1811 4.94573L49.5202 6.55575C49.3987 6.6681 49.3437 6.83456 49.3731 6.99735L49.782 9.26084C49.8255 9.53414 49.6444 9.79186 49.3731 9.84368C49.2612 9.86156 49.1466 9.84276 49.0457 9.7914L47.0011 8.72615C46.8494 8.64957 46.6701 8.64957 46.5184 8.72615L44.4738 9.7914C44.2226 9.92484 43.9113 9.83405 43.7715 9.58642C43.7197 9.48783 43.7013 9.37548 43.7183 9.26588L44.1272 7.00194C44.1566 6.83961 44.1011 6.67223 43.9801 6.55988L42.3192 4.95077C42.1216 4.76001 42.1156 4.44589 42.3059 4.24825C42.31 4.24412 42.3146 4.23954 42.3192 4.23495C42.398 4.1547 42.5016 4.1038 42.6135 4.0905L44.9056 3.75621C45.0707 3.73282 45.2142 3.63056 45.2898 3.48107L46.2736 1.42577C46.3612 1.24968 46.5427 1.14008 46.7398 1.14467H46.8013C46.9722 1.16531 47.1212 1.27123 47.1978 1.42577Z" fill="#FFAA1B"/>
<path fill-rule="evenodd" clip-rule="evenodd" d="M60.9478 1.42577L61.9683 3.47648C62.0434 3.62506 62.1869 3.72823 62.3524 3.75116L64.6446 4.085C64.7785 4.1038 64.8999 4.17442 64.982 4.28218C65.0631 4.38857 65.098 4.52339 65.0783 4.65591C65.0622 4.76597 65.0104 4.86777 64.9311 4.94573L63.2702 6.55575C63.1487 6.6681 63.0937 6.83456 63.1231 6.99735L63.532 9.26084C63.5755 9.53414 63.3944 9.79186 63.1231 9.84368C63.0112 9.86156 62.8966 9.84276 62.7957 9.7914L60.7511 8.72615C60.5994 8.64957 60.4201 8.64957 60.2684 8.72615L58.2238 9.7914C57.9726 9.92484 57.6613 9.83405 57.5215 9.58642C57.4697 9.48783 57.4513 9.37548 57.4683 9.26588L57.8772 7.00194C57.9066 6.83961 57.8511 6.67223 57.7301 6.55988L56.0692 4.95077C55.8716 4.76001 55.8656 4.44589 56.0559 4.24825C56.06 4.24412 56.0646 4.23954 56.0692 4.23495C56.148 4.1547 56.2516 4.1038 56.3635 4.0905L58.6556 3.75621C58.8207 3.73282 58.9642 3.63056 59.0398 3.48107L60.0236 1.42577C60.1112 1.24968 60.2927 1.14008 60.4898 1.14467H60.5513C60.7222 1.16531 60.8712 1.27123 60.9478 1.42577Z" fill="#BDBDBD"/>
</svg>
